<svg id="Layer_1" data-name="Layer 1" xmlns="http://www.w3.org/2000/svg" viewBox="0 0 86 45"><defs><style>.cls-1{fill:#010101;}</style></defs><path class="cls-1" d="M79.8,4a.42.42,0,0,0-.13-.33.78.78,0,0,0-.49-.12h-.33v.91h.4c.37,0,.55-.16.55-.46Zm.51,1.89h-.45l-.29-.64q-.22-.48-.48-.48h-.24V5.88h-.37V3.22h.74a1.11,1.11,0,0,1,.76.22A.67.67,0,0,1,80.2,4a.65.65,0,0,1-.18.46.89.89,0,0,1-.5.26h0c.15,0,.3.2.44.49l.35.71Zm.83-1.3A1.81,1.81,0,0,0,79.3,2.74a1.78,1.78,0,0,0-1.85,1.84,1.85,1.85,0,1,0,3.69,0Zm.25,0A2,2,0,0,1,80.78,6a2,2,0,0,1-1.49.6,2.06,2.06,0,0,1-1.49-.58,2,2,0,0,1-.6-1.48,2,2,0,0,1,.61-1.47,2,2,0,0,1,1.49-.6,2.06,2.06,0,0,1,1.48.57,2,2,0,0,1,.61,1.49Z"/><path class="cls-1" d="M24.55,12H23.26V4.6c0-.58,0-1.29.11-2.12h0A6.52,6.52,0,0,1,23,3.54L19.26,12h-.62L14.88,3.6a6.35,6.35,0,0,1-.33-1.12h0c0,.44.06,1.15.06,2.14V12H13.34V1H15l3.37,7.66a8.87,8.87,0,0,1,.5,1.31H19c.22-.6.39-1.05.52-1.35L22.94,1h1.61V12Z"/><path class="cls-1" d="M28.51,12H27.26V4.14h1.25V12Zm.22-10.66a.79.79,0,0,1-.24.59.83.83,0,0,1-1.16,0,.8.8,0,0,1-.24-.6.76.76,0,0,1,.24-.57A.78.78,0,0,1,27.9.51a.81.81,0,0,1,.59.24.76.76,0,0,1,.24.57Z"/><path class="cls-1" d="M36.34,11.62a4,4,0,0,1-2.15.55,3.52,3.52,0,0,1-2.72-1.12,4,4,0,0,1-1-2.8,4.38,4.38,0,0,1,1.11-3.12,3.88,3.88,0,0,1,3-1.18,4,4,0,0,1,1.81.39V5.63A3.19,3.19,0,0,0,34.49,5a2.52,2.52,0,0,0-2,.83,3.21,3.21,0,0,0-.79,2.28,3.11,3.11,0,0,0,.72,2.17,2.51,2.51,0,0,0,1.94.8,3.21,3.21,0,0,0,1.93-.67v1.19Z"/><path class="cls-1" d="M42.34,5.41a1.57,1.57,0,0,0-1-.25,1.55,1.55,0,0,0-1.29.69A3.44,3.44,0,0,0,39.5,8v4H38.24V4.14H39.5V5.75h0a2.71,2.71,0,0,1,.85-1.32A1.86,1.86,0,0,1,41.58,4a2,2,0,0,1,.75.11v1.3Z"/><path class="cls-1" d="M49.33,8.07a3.37,3.37,0,0,0-.68-2.29A2.29,2.29,0,0,0,46.81,5a2.43,2.43,0,0,0-1.88.76,3.37,3.37,0,0,0-.74,2.32,3.18,3.18,0,0,0,.71,2.21,2.46,2.46,0,0,0,1.91.79,2.32,2.32,0,0,0,1.89-.8,3.5,3.5,0,0,0,.63-2.23m1.29,0a4.22,4.22,0,0,1-1.06,3,3.71,3.71,0,0,1-2.85,1.13A3.63,3.63,0,0,1,43.91,11a4.1,4.1,0,0,1-1-2.89A4.19,4.19,0,0,1,44.05,5,3.88,3.88,0,0,1,46.9,3.94,3.53,3.53,0,0,1,49.64,5a4.35,4.35,0,0,1,1,3"/><path class="cls-1" d="M56.85,9.88a2,2,0,0,1-.72,1.6,3.18,3.18,0,0,1-2.16.69A3.9,3.9,0,0,1,52,11.7V10.35a3.14,3.14,0,0,0,2,.75c1,0,1.49-.37,1.49-1.1a1,1,0,0,0-.33-.75,5.19,5.19,0,0,0-1.29-.72,4.39,4.39,0,0,1-1.4-.89A2.05,2.05,0,0,1,52,6.22a2,2,0,0,1,.78-1.63,3,3,0,0,1,2-.65,3.84,3.84,0,0,1,1.68.37V5.58A2.92,2.92,0,0,0,54.71,5a1.55,1.55,0,0,0-1,.3,1,1,0,0,0-.38.79,1,1,0,0,0,.32.81,4.15,4.15,0,0,0,1.17.65,4.81,4.81,0,0,1,1.45.87,2,2,0,0,1,.58,1.44"/><path class="cls-1" d="M64.52,8.07a3.37,3.37,0,0,0-.68-2.29A2.3,2.3,0,0,0,62,5a2.41,2.41,0,0,0-1.87.76,3.32,3.32,0,0,0-.74,2.32,3.22,3.22,0,0,0,.7,2.21A2.49,2.49,0,0,0,62,11.1a2.33,2.33,0,0,0,1.9-.8,3.5,3.5,0,0,0,.63-2.23m1.29,0a4.22,4.22,0,0,1-1.06,3,3.71,3.71,0,0,1-2.85,1.13A3.62,3.62,0,0,1,59.1,11a4.1,4.1,0,0,1-1-2.89A4.19,4.19,0,0,1,59.24,5a3.88,3.88,0,0,1,2.85-1.05A3.53,3.53,0,0,1,64.83,5a4.35,4.35,0,0,1,1,3"/><path class="cls-1" d="M71.35,1.47a1.69,1.69,0,0,0-.84-.21c-.88,0-1.31.56-1.31,1.67V4.14H71V5.2H69.2V12H67.94V5.2H66.6V4.14h1.34V2.86a2.57,2.57,0,0,1,.8-2A2.4,2.4,0,0,1,70.44.2a2.48,2.48,0,0,1,.91.14V1.47Z"/><path class="cls-1" d="M76.3,11.9a2.37,2.37,0,0,1-1.18.26c-1.37,0-2.05-.78-2.05-2.32V5.2H71.72V4.14h1.35V2.22l1.26-.4V4.14h2V5.2h-2V9.63a1.81,1.81,0,0,0,.26,1.12,1.1,1.1,0,0,0,.9.33,1.32,1.32,0,0,0,.81-.25V11.9Z"/><path class="cls-1" d="M8.42,42.6a2.29,2.29,0,0,1-2.27,2.27,2.1,2.1,0,0,1-1.57-.68,2.32,2.32,0,0,1,0-3.2,2.12,2.12,0,0,1,1.57-.66A2.17,2.17,0,0,1,7.76,41a2.21,2.21,0,0,1,.66,1.6"/><path class="cls-1" d="M36.54,44.41h-4.1l-14.86-23a10.56,10.56,0,0,1-.91-1.81h-.12a29.1,29.1,0,0,1,.16,4V44.41H13.34V15.6h4.38L32.14,38.2c.57.9,1,1.54,1.16,1.92h.08a31,31,0,0,1-.2-4.23V15.6h3.36V44.41Z"/><path class="cls-1" d="M58.18,44.41H42.91V15.6H57.52v3H46.29v9.59h10.4v3.05H46.29V41.35H58.18v3.06Z"/><path class="cls-1" d="M81.33,18.66H73V44.41H69.66V18.66H61.35V15.6h20v3.06Z"/></svg>