<?xml version="1.0" encoding="utf-8"?>
<!-- Generator: Adobe Illustrator 26.0.2, SVG Export Plug-In . SVG Version: 6.00 Build 0)  -->
<svg version="1.1" id="Layer_1" xmlns="http://www.w3.org/2000/svg" xmlns:xlink="http://www.w3.org/1999/xlink" x="0px" y="0px"
	 viewBox="0 0 38.8 45" style="enable-background:new 0 0 38.8 45;" xml:space="preserve">
<style type="text/css">
	.st0{fill:#010101;}
</style>
<path class="st0" d="M19.1,11.1c2.5,0,4.9-1.1,6.5-2.9c1.8-1.8,2.8-4.2,2.8-6.8c0-0.3,0-0.7-0.1-1.2l-0.7,0.1
	c-2.3,0.4-4.5,1.6-6,3.4C20,5.3,19,7.5,19,9.9C19.1,10.3,19.1,10.7,19.1,11.1L19.1,11.1z M28,45.2c1.8,0,3.7-1.2,5.9-3.6
	c2.2-2.5,3.9-5.4,4.9-8.6c-4.2-2.2-6.3-5.3-6.3-9.4c0-3.4,1.7-6.3,5.1-8.7c-2.2-2.9-5.7-4.5-9.4-4.4c-1.5,0-3,0.2-4.5,0.7l-0.9,0.3
	l-1,0.5c-0.6,0.3-1.3,0.4-2,0.4s-1.3-0.2-1.9-0.4L17,11.6l-0.8-0.4c-1.2-0.5-2.6-0.8-3.9-0.8c-3.4-0.1-6.7,1.2-8.9,3.8
	C1.1,17-0.2,20.5,0,24.1c0,5.8,1.9,11.4,5.4,16c2.5,3.4,4.7,5.1,6.8,5.1c0.9,0,1.8-0.2,2.6-0.5l1.1-0.5l0.9-0.3
	c1.1-0.4,2.3-0.6,3.4-0.7c1.3,0,2.6,0.3,3.8,0.8l0.7,0.3C25.7,44.8,26.9,45.1,28,45.2z"/>
</svg>
